<svg width="258" height="45" viewBox="0 0 258 45" fill="none" xmlns="http://www.w3.org/2000/svg">
<path d="M61.685 34V15.52H55.805V12.195H71.66V15.52H65.465V34H61.685ZM74.95 10.515H78.905H79.22V10.83C79.1033 10.97 79.0217 11.1217 78.975 11.285C78.9517 11.4483 78.94 11.7283 78.94 12.125V19.86C79.3367 19.2767 79.7917 18.81 80.305 18.46C80.8183 18.0867 81.3667 17.8067 81.95 17.62C82.5567 17.4333 83.14 17.34 83.7 17.34C84.75 17.34 85.66 17.5733 86.43 18.04C87.2233 18.4833 87.83 19.2183 88.25 20.245C88.6933 21.2483 88.915 22.555 88.915 24.165V34H84.925V24.235C84.925 23.2783 84.8317 22.52 84.645 21.96C84.4583 21.3767 84.19 20.9683 83.84 20.735C83.5133 20.5017 83.1167 20.385 82.65 20.385C82.2533 20.385 81.8683 20.4433 81.495 20.56C81.1217 20.6767 80.7833 20.8633 80.48 21.12C80.1767 21.3533 79.8967 21.645 79.64 21.995C79.4067 22.345 79.2317 22.7417 79.115 23.185C78.9983 23.6283 78.94 24.1183 78.94 24.655V34H74.95V10.515ZM100.535 34.385C99.3683 34.385 98.2833 34.1983 97.28 33.825C96.3 33.4517 95.4367 32.915 94.69 32.215C93.9667 31.4917 93.4067 30.605 93.01 29.555C92.6133 28.505 92.415 27.315 92.415 25.985C92.415 24.6317 92.6133 23.4183 93.01 22.345C93.4067 21.2717 93.9433 20.3617 94.62 19.615C95.32 18.8683 96.1367 18.3083 97.07 17.935C98.0033 17.5383 99.0067 17.34 100.08 17.34C101.037 17.34 101.935 17.5033 102.775 17.83C103.615 18.1567 104.35 18.6583 104.98 19.335C105.633 19.9883 106.147 20.8167 106.52 21.82C106.893 22.8 107.08 23.9433 107.08 25.25C107.08 25.4833 107.068 25.7633 107.045 26.09C107.045 26.4167 107.033 26.6967 107.01 26.93H96.23C96.2767 27.7 96.4283 28.365 96.685 28.925C96.9417 29.4617 97.28 29.905 97.7 30.255C98.12 30.605 98.5867 30.8733 99.1 31.06C99.6133 31.2233 100.15 31.305 100.71 31.305C101.2 31.305 101.667 31.2583 102.11 31.165C102.577 31.0717 103.008 30.9083 103.405 30.675C103.825 30.4417 104.222 30.1383 104.595 29.765L106.625 31.725C106.112 32.3317 105.528 32.845 104.875 33.265C104.245 33.6617 103.557 33.9417 102.81 34.105C102.087 34.2917 101.328 34.385 100.535 34.385ZM96.3 23.955H103.23C103.23 23.395 103.148 22.8933 102.985 22.45C102.845 22.0067 102.635 21.6333 102.355 21.33C102.075 21.0267 101.725 20.805 101.305 20.665C100.908 20.5017 100.442 20.42 99.905 20.42C99.4617 20.42 99.03 20.49 98.61 20.63C98.2133 20.7467 97.8517 20.9567 97.525 21.26C97.1983 21.5633 96.93 21.9367 96.72 22.38C96.51 22.8233 96.37 23.3483 96.3 23.955ZM128.675 34V12.195H135.57C137.367 12.195 138.825 12.4633 139.945 13C141.088 13.5133 141.928 14.26 142.465 15.24C143.002 16.1967 143.27 17.3167 143.27 18.6C143.27 19.3933 143.095 20.1867 142.745 20.98C142.418 21.7733 141.952 22.485 141.345 23.115C140.738 23.745 140.015 24.2233 139.175 24.55L143.865 34H139.7L135.29 24.935H132.665V34H128.675ZM132.665 21.645H135.85C136.97 21.645 137.81 21.3883 138.37 20.875C138.93 20.3383 139.21 19.615 139.21 18.705C139.21 18.1217 139.082 17.6083 138.825 17.165C138.592 16.6983 138.218 16.325 137.705 16.045C137.215 15.765 136.597 15.625 135.85 15.625H132.665V21.645ZM153.84 34.35C152.393 34.35 151.075 34 149.885 33.3C148.718 32.5767 147.797 31.5733 147.12 30.29C146.443 29.0067 146.105 27.525 146.105 25.845C146.105 24.235 146.443 22.7883 147.12 21.505C147.797 20.2217 148.718 19.2067 149.885 18.46C151.075 17.7133 152.393 17.34 153.84 17.34C155.31 17.34 156.628 17.7133 157.795 18.46C158.985 19.2067 159.918 20.2217 160.595 21.505C161.295 22.7883 161.645 24.235 161.645 25.845C161.645 27.525 161.295 29.0067 160.595 30.29C159.918 31.5733 158.985 32.5767 157.795 33.3C156.628 34 155.31 34.35 153.84 34.35ZM153.84 31.2C154.61 31.2 155.275 30.9783 155.835 30.535C156.395 30.0683 156.838 29.4383 157.165 28.645C157.515 27.8283 157.69 26.895 157.69 25.845C157.69 24.7483 157.515 23.8033 157.165 23.01C156.838 22.2167 156.395 21.61 155.835 21.19C155.275 20.7467 154.61 20.525 153.84 20.525C153.14 20.525 152.498 20.7467 151.915 21.19C151.355 21.61 150.9 22.2167 150.55 23.01C150.223 23.8033 150.06 24.7483 150.06 25.845C150.06 26.895 150.223 27.8283 150.55 28.645C150.877 29.4383 151.32 30.0683 151.88 30.535C152.463 30.9783 153.117 31.2 153.84 31.2ZM170.08 34.42C168.283 34.42 166.883 34 165.88 33.16C164.9 32.2967 164.41 31.1883 164.41 29.835C164.41 28.9717 164.597 28.1783 164.97 27.455C165.367 26.7083 165.95 26.0667 166.72 25.53C167.49 24.9933 168.447 24.585 169.59 24.305C170.733 24.0017 172.04 23.85 173.51 23.85C173.697 23.85 173.93 23.85 174.21 23.85C174.49 23.85 174.793 23.8617 175.12 23.885C175.447 23.885 175.75 23.9083 176.03 23.955L176.135 26.685C175.902 26.6617 175.622 26.65 175.295 26.65C174.968 26.6267 174.63 26.615 174.28 26.615C173.953 26.5917 173.673 26.58 173.44 26.58C172.507 26.58 171.713 26.65 171.06 26.79C170.43 26.93 169.917 27.1283 169.52 27.385C169.123 27.6183 168.832 27.91 168.645 28.26C168.458 28.5867 168.365 28.9483 168.365 29.345C168.365 29.7183 168.423 30.0333 168.54 30.29C168.68 30.5467 168.855 30.7567 169.065 30.92C169.298 31.06 169.567 31.165 169.87 31.235C170.173 31.305 170.5 31.34 170.85 31.34C171.55 31.34 172.157 31.235 172.67 31.025C173.207 30.7917 173.65 30.43 174 29.94C174.373 29.45 174.642 28.8433 174.805 28.12C174.992 27.3733 175.085 26.4983 175.085 25.495C175.085 24.1417 174.945 23.1033 174.665 22.38C174.385 21.6567 173.977 21.155 173.44 20.875C172.903 20.5717 172.227 20.42 171.41 20.42C170.663 20.42 169.952 20.5483 169.275 20.805C168.622 21.0383 167.98 21.4817 167.35 22.135L165.18 19.755C166.09 18.8917 167.105 18.2733 168.225 17.9C169.345 17.5267 170.465 17.34 171.585 17.34C172.612 17.34 173.568 17.4567 174.455 17.69C175.342 17.9233 176.112 18.32 176.765 18.88C177.442 19.4167 177.967 20.1633 178.34 21.12C178.737 22.0533 178.935 23.22 178.935 24.62V34H174.84V32.25C174.537 32.6467 174.21 32.985 173.86 33.265C173.51 33.545 173.137 33.7667 172.74 33.93C172.343 34.0933 171.923 34.21 171.48 34.28C171.037 34.3733 170.57 34.42 170.08 34.42ZM184.29 17.725H188.385L188.35 22.275L187.895 21.995C187.988 21.2717 188.187 20.63 188.49 20.07C188.817 19.51 189.213 19.02 189.68 18.6C190.17 18.18 190.695 17.865 191.255 17.655C191.838 17.445 192.433 17.34 193.04 17.34C193.95 17.34 194.767 17.4917 195.49 17.795C196.237 18.075 196.925 18.5417 197.555 19.195L195.875 22.52L195.77 22.8L195.455 22.66C195.385 22.4733 195.315 22.2867 195.245 22.1C195.175 21.89 195 21.6567 194.72 21.4C194.393 21.1433 194.043 20.945 193.67 20.805C193.32 20.665 192.935 20.595 192.515 20.595C191.955 20.595 191.418 20.6883 190.905 20.875C190.392 21.0617 189.937 21.3533 189.54 21.75C189.167 22.1467 188.863 22.66 188.63 23.29C188.42 23.8967 188.315 24.62 188.315 25.46V34H184.29V17.725Z" fill="#3F3F3F"/>
<path d="M15.0775 2.96055C17.3258 2.2111 19.8188 1.99916 22.1515 2C24.4843 1.99916 26.9772 2.2111 29.2256 2.96055L30.5616 3.4059C30.8237 3.49324 31.1083 3.49295 31.3702 3.40502C31.8437 3.24599 32.2441 3.10949 32.5862 2.99287C33.9434 2.53022 34.3821 2.38066 34.8217 2.38066C35.2248 2.38066 35.5386 2.55467 35.9555 2.78583C36.103 2.86764 36.2635 2.95659 36.4454 3.04754C37.1413 3.42448 38.0692 4.23635 38.533 4.87425C39.2579 5.86008 39.345 6.266 39.3739 8.12169C39.3739 10.1514 39.4029 10.2673 40.7077 12.036C41.4616 13.0219 42.4184 14.6166 42.8534 15.5735C43.2883 16.5303 43.8102 18.009 43.9842 18.8499C44.1581 19.6618 44.3031 21.4305 44.3031 22.7642C44.3031 24.069 44.1292 25.7217 43.8971 26.4466C43.6652 27.1715 43.2592 28.2443 42.9693 28.8532C42.9142 28.9595 42.8655 29.0547 42.8216 29.1404C42.5913 29.5902 42.4951 29.778 42.3232 29.921C42.2474 29.984 42.1472 30.0126 42.0513 29.9897C41.9018 29.954 41.7521 29.8736 41.6178 29.8015C41.5517 29.766 41.4893 29.7326 41.4326 29.7074C41.306 29.6513 41.194 29.7414 41.1437 29.8704L41.1176 29.9377C40.9204 30.4448 40.4965 31.5352 40.0408 32.3326C39.4609 33.3185 38.1851 34.9132 37.2283 35.899C36.2666 36.8324 33.8005 38.5879 32.8459 39.1309C32.8082 39.1524 32.7611 39.1361 32.7438 39.0963C32.6629 38.9102 32.6138 38.7464 32.5726 38.6094C32.5049 38.3838 32.4591 38.231 32.329 38.1707C32.3035 38.1589 32.2751 38.1593 32.2497 38.171C31.939 38.3144 30.726 39.2601 29.56 40.1691C29.3913 40.3006 29.2236 40.4313 29.0598 40.5587C27.2005 41.8127 24.4042 43.5999 22.1515 45C19.8988 43.5999 17.1026 41.8127 15.2433 40.5587C15.0794 40.4313 14.9117 40.3006 14.7431 40.1691C13.5771 39.2601 12.3641 38.3144 12.0534 38.171C12.0405 38.1651 12.0269 38.162 12.0132 38.162C12 38.162 11.9867 38.1649 11.9741 38.1707C11.844 38.231 11.7981 38.3838 11.7305 38.6094C11.6893 38.7464 11.6402 38.9102 11.5593 39.0963C11.542 39.1361 11.4949 39.1524 11.4572 39.1309C10.5026 38.5879 8.03646 36.8324 7.07481 35.899C6.118 34.9132 4.8422 33.3185 4.26231 32.3326C3.80664 31.5352 3.38264 30.4448 3.18553 29.9377L3.15935 29.8704C3.10905 29.7414 2.99707 29.6513 2.87051 29.7074C2.81375 29.7326 2.75134 29.766 2.68527 29.8015C2.55101 29.8736 2.40134 29.954 2.25175 29.9897C2.1559 30.0126 2.05566 29.984 1.97991 29.921C1.80803 29.778 1.71182 29.5902 1.48149 29.1404C1.43764 29.0547 1.38887 28.9595 1.3338 28.8532C1.04385 28.2443 0.637898 27.1715 0.405955 26.4466C0.173939 25.7217 0 24.069 0 22.7642C0 21.4305 0.144974 19.6618 0.318912 18.8499C0.492925 18.009 1.01481 16.5303 1.44974 15.5735C1.88466 14.6166 2.84154 13.0219 3.59537 12.036C4.90021 10.2673 4.92917 10.1514 4.92917 8.12169C4.95814 6.266 5.04518 5.86008 5.77005 4.87425C6.23394 4.23635 7.16178 3.42448 7.85768 3.04754C8.03954 2.95659 8.20006 2.86764 8.3476 2.78583C8.76448 2.55467 9.07834 2.38066 9.48143 2.38066C9.92097 2.38066 10.3597 2.53022 11.7169 2.99287C12.059 3.10949 12.4594 3.24599 12.9329 3.40502C13.1948 3.49295 13.4794 3.49324 13.7415 3.4059L15.0775 2.96055Z" fill="#FFC700"/>
<path d="M15.1645 4.26535C17.4446 3.49361 21.1003 3.05126 22.1515 3.57689C23.2028 3.05126 26.8584 3.49361 29.1386 4.26535L31.2552 4.99022C33.1689 4.09137 34.0677 3.83041 34.5027 3.83041C34.9666 3.83041 35.6915 4.06237 36.1554 4.32334C36.6193 4.61328 37.3152 5.30917 37.6631 5.86008C38.243 6.72994 38.301 7.13586 38.156 8.75959L38.0111 10.6443C39.9537 12.9929 40.9685 14.6456 41.5195 15.7764C42.0704 16.9362 42.6793 18.7919 42.8822 19.9227C43.0562 21.0245 43.1432 22.7932 43.0562 23.8371C42.9692 24.8809 42.6503 26.3017 42.3603 26.9685C42.2693 27.1898 42.1978 27.3684 42.1391 27.5149C41.9498 27.9877 41.8943 28.1263 41.7456 28.2849C41.7257 28.306 41.6949 28.3128 41.6677 28.303C41.3348 28.1831 41.2119 28.1276 41.1081 28.0688C41.0293 28.0242 40.93 28.0531 40.8913 28.135C40.3831 29.2096 38.7608 32.0323 38.1271 32.9415C37.4601 33.8694 36.1264 35.2611 35.1695 36.044C34.2127 36.8269 33.3429 37.4648 33.1979 37.4648C33.0819 37.4648 32.9369 37.2618 32.85 37.0299C32.7339 36.6819 32.328 36.8849 31.0523 37.8127C29.2239 39.2282 27.2255 40.4516 25.2349 41.6702C24.1966 42.3059 23.1604 42.9402 22.1515 43.5999C21.1427 42.9402 20.1064 42.3059 19.0682 41.6702C17.0775 40.4516 15.0791 39.2282 13.2508 37.8127C11.9751 36.8849 11.5691 36.6819 11.4531 37.0299C11.3662 37.2618 11.2212 37.4648 11.1052 37.4648C10.9602 37.4648 10.0904 36.8269 9.13355 36.044C8.17666 35.2611 6.84293 33.8694 6.176 32.9415C5.54228 32.0323 3.91993 29.2096 3.41182 28.135C3.3731 28.0531 3.27381 28.0242 3.19498 28.0688C3.09115 28.1276 2.96832 28.1831 2.6354 28.303C2.60812 28.3128 2.57733 28.306 2.55745 28.2849C2.40874 28.1263 2.35323 27.9877 2.16396 27.5149C2.1053 27.3684 2.0338 27.1898 1.94273 26.9685C1.65278 26.3017 1.33387 24.8809 1.24682 23.8371C1.15986 22.7932 1.24682 21.0245 1.42084 19.9227C1.62381 18.7919 2.23267 16.9362 2.7836 15.7764C3.33453 14.6456 4.34935 12.9929 6.29201 10.6443L6.14703 8.75959C6.00206 7.13586 6.06006 6.72994 6.63996 5.86008C6.98791 5.30917 7.68374 4.61328 8.1477 4.32334C8.61158 4.06237 9.33652 3.83041 9.80041 3.83041C10.2353 3.83041 11.1342 4.09137 13.0479 4.99022L15.1645 4.26535Z" fill="#4A72D9"/>
<path d="M22.1515 4.40288C19.8565 3.93339 17.7614 4.42679 17.1256 4.57653C17.0495 4.59444 16.9944 4.60744 16.9622 4.61328C16.7219 4.65697 16.1854 4.83232 15.6252 5.01541C15.442 5.0753 15.2562 5.136 15.0775 5.19318C14.3527 5.45414 13.5988 5.77309 13.3958 5.91806C13.1929 6.06304 12.555 5.91806 11.8011 5.59912C11.1342 5.30917 10.2933 4.99022 9.91642 4.87423C9.4815 4.75826 9.04651 4.90323 8.46662 5.42514L7.68374 6.15003C9.13355 5.86008 9.88739 6.00505 10.7863 6.41099C11.6561 6.78792 12.178 7.19384 12.178 7.54179C12.207 7.80274 12.0041 8.23768 11.7431 8.46964C11.4822 8.7016 11.2792 8.99155 11.3082 9.13652C11.3082 9.25251 11.5981 9.25251 11.9461 9.16552C12.294 9.04953 12.8449 8.58561 13.1638 8.12169C13.5118 7.65776 14.3527 7.07787 15.0775 6.81691C15.6742 6.5874 17.5337 6.13991 18.8151 5.97768C19.3841 5.90565 19.9589 5.85645 20.5323 5.84926C21.4556 5.83771 22.1515 6.01732 22.1515 6.01732C22.1515 6.01732 22.8475 5.83771 23.7707 5.84926C24.3442 5.85645 24.919 5.90565 25.488 5.97768C26.7694 6.13991 28.6289 6.5874 29.2255 6.81691C29.9504 7.07787 30.7913 7.65776 31.1392 8.12169C31.4582 8.58561 32.0091 9.04953 32.357 9.16552C32.705 9.25251 32.9949 9.25251 32.9949 9.13652C33.0239 8.99155 32.8209 8.7016 32.56 8.46964C32.299 8.23768 32.0961 7.80274 32.1251 7.54179C32.1251 7.19384 32.647 6.78792 33.5168 6.41099C34.4157 6.00505 35.1695 5.86008 36.6193 6.15003L35.8365 5.42514C35.2566 4.90323 34.8216 4.75826 34.3867 4.87423C34.0097 4.99022 33.1689 5.30917 32.502 5.59912C31.7481 5.91806 31.1102 6.06304 30.9073 5.91806C30.7043 5.77309 29.9504 5.45414 29.2255 5.19318C29.0468 5.136 28.8611 5.0753 28.6777 5.01535L28.677 5.01519C28.1174 4.83221 27.5811 4.65695 27.3409 4.61328C27.3337 4.61198 27.3253 4.61031 27.316 4.60832L27.2898 4.60261C27.2599 4.59594 27.2223 4.58709 27.1775 4.57653C26.5417 4.42679 24.4466 3.93339 22.1515 4.40288Z" fill="#FFC700"/>
<path d="M22.1515 7.62566C22.0094 7.62429 21.8736 7.62524 21.7464 7.62878C20.7026 7.65776 19.2818 7.77375 18.557 7.91873C17.8321 8.0637 16.5273 8.49862 15.6574 8.90456C14.7876 9.3105 14.1497 9.71643 14.2657 9.86141C14.4107 9.97738 14.8456 9.89039 15.2805 9.68743C15.7444 9.48447 16.8752 9.3105 17.8321 9.28149C18.0246 9.28149 18.2547 9.28032 18.5106 9.27845C18.8345 9.27607 19.1996 9.27257 19.582 9.26892L19.5834 9.2689H19.584L19.5849 9.26888C20.1929 9.26305 20.8158 9.40102 21.4218 9.53525L21.4233 9.53564C21.5692 9.56794 21.714 9.6 21.8574 9.62979C21.9089 9.64048 21.9602 9.65089 22.0113 9.6609C22.0583 9.67011 22.105 9.67896 22.1515 9.68743C22.3906 9.64396 22.6346 9.58992 22.8813 9.53525C23.4873 9.40102 24.1102 9.26305 24.7182 9.26888L24.7191 9.2689H24.7197L24.7211 9.26892C25.4057 9.27546 26.0348 9.28149 26.471 9.28149C27.4279 9.3105 28.5587 9.48447 29.0226 9.68743C29.4575 9.89039 29.8924 9.97738 30.0374 9.86141C30.1534 9.71643 29.5155 9.3105 28.6457 8.90456C27.7758 8.49862 26.471 8.0637 25.7461 7.91873C25.0212 7.77375 23.6005 7.65776 22.5567 7.62878C22.4295 7.62524 22.2937 7.62429 22.1515 7.62566Z" fill="#FFC700"/>
<path d="M20.7624 16.6801C21.3631 16.5299 21.739 16.4776 22.1515 16.4924C22.5641 16.4776 22.94 16.5299 23.5407 16.6801C23.7856 16.6801 23.9186 16.6482 24.0541 16.5417C24.1293 16.4826 24.2002 16.4183 24.2712 16.354C24.3663 16.2677 24.4614 16.1814 24.5669 16.108C24.6232 16.0687 24.6817 16.0281 24.7424 15.9862C24.8129 15.9374 24.8865 15.8868 24.9632 15.8344C25.7752 15.2835 26.9929 14.6746 27.6308 14.5296C28.2687 14.3846 29.0516 14.0077 29.3705 13.6888C29.8345 13.1958 29.8924 13.0219 29.5735 12.7319C29.3705 12.558 29.2255 12.297 29.2255 12.181C29.2255 12.036 29.3995 11.9491 29.5735 11.9491C29.7765 11.978 30.5883 12.297 31.4002 12.6739C32.1831 13.0509 33.1399 13.6888 33.4879 14.0947C33.8648 14.5006 34.0967 14.9935 34.0097 15.1385C32.9226 15.2168 32.0063 15.887 31.0987 16.5508L31.0983 16.5512C30.5965 16.9182 30.0974 17.2832 29.5735 17.5451C28.7617 17.98 28.6457 17.98 28.6457 17.6031C28.6457 17.3711 28.9646 16.7622 29.3705 16.2983C29.7765 15.8344 29.8483 15.5913 29.8483 15.4036C29.7033 15.4036 29.0806 15.7184 28.5587 16.0664C28.0658 16.4143 26.3476 17.6942 25.6808 18.3321C25.3773 18.6355 25.0267 18.793 24.7132 18.8749C24.6994 18.8785 24.6874 18.8856 24.6782 18.8948C24.6641 18.9089 24.6564 18.9281 24.6583 18.9475C24.6592 18.956 24.662 18.9646 24.6669 18.9728C24.7661 19.138 24.9642 19.245 25.231 19.3892C25.3591 19.4583 25.5029 19.536 25.6591 19.6328C25.8911 19.9517 26.181 20.6766 26.326 21.2275C26.471 21.7784 27.0799 23.0832 27.6888 24.127C28.6166 25.6927 28.8196 26.3306 28.8776 27.8964C28.9356 28.9692 28.8196 30.158 28.6166 30.6509C28.4137 31.1438 28.2397 31.6658 28.2397 31.8107C28.2107 31.9557 27.6018 32.0717 26.906 32.0137C26.181 31.9847 25.2242 31.8977 24.7313 31.8107C24.2384 31.7237 23.7165 31.5498 23.5715 31.4048C23.3976 31.2308 23.5425 31.0569 24.0064 30.9119C24.4124 30.7959 25.0792 30.448 25.5142 30.1C25.9781 29.7521 26.558 28.9982 26.8189 28.3893C27.3119 27.3455 27.3119 27.2585 26.8189 26.3016C26.442 25.5478 26.0361 25.1998 25.2532 24.9969C24.6498 24.8532 23.249 24.7095 22.1515 24.7069C21.0541 24.7095 19.6533 24.8532 19.0499 24.9969C18.267 25.1998 17.8611 25.5478 17.4842 26.3016C16.9912 27.2585 16.9912 27.3455 17.4842 28.3893C17.7451 28.9982 18.325 29.7521 18.7889 30.1C19.2238 30.448 19.8907 30.7959 20.2967 30.9119C20.7606 31.0569 20.9055 31.2308 20.7316 31.4048C20.5866 31.5498 20.0647 31.7237 19.5718 31.8107C19.0789 31.8977 18.1221 31.9847 17.3971 32.0137C16.7013 32.0717 16.0924 31.9557 16.0634 31.8107C16.0634 31.6658 15.8894 31.1438 15.6865 30.6509C15.4835 30.158 15.3675 28.9692 15.4255 27.8964C15.4835 26.3306 15.6865 25.6927 16.6142 24.127C17.2232 23.0832 17.8321 21.7784 17.9771 21.2275C18.1221 20.6766 18.412 19.9517 18.6439 19.6328C18.8002 19.536 18.944 19.4583 19.072 19.3892C19.3389 19.245 19.537 19.138 19.6362 18.9728C19.6596 18.9337 19.634 18.8864 19.5899 18.8749C19.2763 18.793 18.9258 18.6355 18.6223 18.3321C17.9555 17.6942 16.2373 16.4143 15.7444 16.0664C15.2225 15.7184 14.5998 15.4036 14.4548 15.4036C14.4548 15.5913 14.5266 15.8344 14.9326 16.2983C15.3385 16.7622 15.6574 17.3711 15.6574 17.6031C15.6574 17.98 15.5414 17.98 14.7296 17.5451C14.2057 17.2832 13.7066 16.9182 13.2048 16.5512L13.2044 16.5508C12.2968 15.887 11.3805 15.2168 10.2933 15.1385C10.2064 14.9935 10.4383 14.5006 10.8152 14.0947C11.1632 13.6888 12.12 13.0509 12.9029 12.6739C13.7148 12.297 14.5266 11.978 14.7296 11.9491C14.9036 11.9491 15.0775 12.036 15.0775 12.181C15.0775 12.297 14.9326 12.558 14.7296 12.7319C14.4107 13.0219 14.4686 13.1958 14.9326 13.6888C15.2515 14.0077 16.0344 14.3846 16.6722 14.5296C17.3101 14.6746 18.5279 15.2835 19.3399 15.8344C19.4122 15.8838 19.4816 15.9315 19.5483 15.9776C19.6135 16.0227 19.6761 16.0661 19.7362 16.108C19.8416 16.1814 19.9368 16.2677 20.0319 16.354C20.0787 16.3964 20.1254 16.4388 20.1733 16.4797C20.1866 16.4909 20.1999 16.5021 20.2134 16.5131C20.2252 16.5228 20.237 16.5323 20.249 16.5417C20.3845 16.6482 20.5175 16.6801 20.7624 16.6801Z" fill="#FFC700"/>
<path d="M22.1515 38.1894L22.0363 38.1897C20.2387 38.1897 19.3108 38.0447 18.615 37.6677C17.948 37.3198 17.6581 36.9429 17.6001 36.392V36.3911C17.5557 35.9771 17.5339 35.7745 17.477 35.764C17.4224 35.754 17.3354 35.9207 17.1652 36.247C16.9622 36.5949 16.8463 37.1748 16.8752 37.5228C16.9332 37.8997 17.3682 38.3926 17.9771 38.7406C18.8179 39.2625 19.4848 39.3495 22.0363 39.3495L22.1515 39.3494L22.2667 39.3495C24.8183 39.3495 25.4852 39.2625 26.326 38.7406C26.9349 38.3926 27.3699 37.8997 27.4279 37.5228C27.4568 37.1748 27.3409 36.5949 27.1379 36.247C26.9676 35.9207 26.8807 35.754 26.8261 35.764C26.7692 35.7745 26.7474 35.9771 26.703 36.3911V36.392C26.645 36.9429 26.355 37.3198 25.6881 37.6677C24.9923 38.0447 24.0644 38.1897 22.2667 38.1897L22.1515 38.1894Z" fill="#FFC700"/>
<path d="M6.72693 12.7609C6.8139 12.297 6.78494 11.9491 6.66893 11.9491C6.55299 11.9491 6.06007 12.6449 5.56714 13.4568C5.07422 14.2977 4.5813 15.2545 4.46529 15.5735C4.34935 15.9214 4.37832 16.0374 4.52329 15.8634C4.60755 15.7791 4.81918 15.5382 5.0784 15.2429L5.08258 15.2383L5.26444 15.0313C5.40003 14.8771 5.54273 14.7155 5.68308 14.5586C6.176 14.0077 6.66893 13.1958 6.72693 12.7609Z" fill="#FFC700"/>
<path d="M5.71212 17.0232C5.77012 17.1102 5.62515 17.5161 5.39313 17.98C5.16119 18.415 4.84228 19.6038 4.6393 20.6476C4.43632 21.6914 4.08837 23.3441 3.82739 24.359C3.53744 25.3448 3.21853 26.1567 3.04452 26.1567C2.87058 26.1567 2.81257 25.2868 2.92858 23.7791C3.04452 22.0683 3.33446 20.8796 3.88539 19.6328C4.32031 18.6759 4.90021 17.6611 5.13222 17.3711C5.39313 17.1102 5.65411 16.9362 5.71212 17.0232Z" fill="#FFC700"/>
<path d="M14.1625 18.1065C13.9747 17.9864 13.7518 17.844 13.6857 17.844C13.6062 18.0686 13.5169 18.3319 13.5244 18.7321C13.5316 19.1177 13.664 19.4899 13.8452 19.8304C14.0358 20.1889 14.192 20.3553 14.5675 20.5848C15.0894 20.8747 15.4685 20.8476 16.0924 20.7636L16.9703 20.397C16.6575 20.3884 16.4192 20.3877 16.2264 20.3872H16.2255C15.8403 20.3862 15.6371 20.3856 15.3849 20.3223C14.9563 20.2146 14.5845 19.9349 14.3947 19.5358C14.2717 19.2771 14.1772 18.9822 14.192 18.7451C14.192 18.5345 14.192 18.3696 14.3422 18.2194C14.2927 18.1897 14.2298 18.1496 14.1625 18.1065Z" fill="#FFC700"/>
<path d="M4.90021 26.3016L6.08903 28.5633C6.7559 29.839 7.97369 31.5498 8.98858 32.6226C9.94539 33.6084 10.7283 34.6522 10.7283 34.9422C10.7283 35.2032 10.6413 35.4351 10.5253 35.4351C10.3803 35.4351 9.53943 34.7682 8.58262 33.9274C7.46148 32.9029 6.6206 31.8107 6.06007 30.6509C5.59611 29.6941 5.16119 28.3313 5.07422 27.6064L4.90021 26.3016Z" fill="#FFC700"/>
<path d="M12.5471 19.4875C12.5877 19.803 12.6967 20.111 12.9102 20.3468C13.4528 20.9463 13.6057 21.1283 13.6857 21.2275C13.7447 21.3005 13.179 21.0733 12.6466 20.7935C12.0962 20.5042 11.6662 20.0286 11.4572 19.4429C11.2947 18.9872 11.2635 18.6313 11.2635 18.4072C11.5376 18.4072 11.9045 18.6892 12.1956 18.9128C12.2969 18.9907 12.3891 19.0615 12.4649 19.1109C12.4988 19.2009 12.5272 19.3335 12.5471 19.4875Z" fill="#FFC700"/>
<path d="M38.62 14.5586C38.1271 14.0077 37.6342 13.1958 37.5762 12.7609C37.4892 12.297 37.5182 11.9491 37.6342 11.9491C37.7501 11.9491 38.243 12.6449 38.7359 13.4568C39.2289 14.2977 39.7218 15.2545 39.8378 15.5735C39.9537 15.9214 39.9248 16.0374 39.7798 15.8634C39.7428 15.8263 39.6811 15.759 39.6015 15.67C39.5002 15.5567 39.3699 15.4083 39.2247 15.2429C39.0379 15.0302 38.8264 14.7893 38.62 14.5586Z" fill="#FFC700"/>
<path d="M38.591 17.0232C38.533 17.1102 38.6779 17.5161 38.91 17.98C39.1419 18.415 39.4608 19.6038 39.6638 20.6476C39.8668 21.6914 40.2147 23.3441 40.4757 24.359C40.7656 25.3448 41.0846 26.1567 41.2586 26.1567C41.4325 26.1567 41.4905 25.2868 41.3745 23.7791C41.2586 22.0683 40.9686 20.8796 40.4177 19.6328C39.9828 18.6759 39.4029 17.6611 39.1709 17.3711C38.91 17.1102 38.649 16.9362 38.591 17.0232Z" fill="#FFC700"/>
<path d="M30.1406 18.1065C30.3284 17.9864 30.5513 17.844 30.6174 17.844C30.6969 18.0686 30.7862 18.3319 30.7787 18.7321C30.7715 19.1177 30.6391 19.4899 30.4579 19.8304C30.2673 20.1889 30.1111 20.3553 29.7356 20.5848C29.2137 20.8747 28.8346 20.8476 28.2107 20.7636L27.3328 20.397C27.646 20.3883 27.8846 20.3877 28.0776 20.3872C28.4628 20.3862 28.666 20.3856 28.9182 20.3223C29.3468 20.2146 29.7186 19.9349 29.9084 19.5358C30.0314 19.2771 30.1259 18.9822 30.1111 18.7451C30.1111 18.5345 30.1111 18.3696 29.9609 18.2194C30.0104 18.1897 30.0732 18.1496 30.1406 18.1065Z" fill="#FFC700"/>
<path d="M39.4029 26.3016L38.2141 28.5633C37.5472 29.839 36.3294 31.5498 35.3145 32.6226C34.3577 33.6084 33.5748 34.6522 33.5748 34.9422C33.5748 35.2032 33.6618 35.4351 33.7778 35.4351C33.9228 35.4351 34.7637 34.7682 35.7205 33.9274C36.8416 32.9029 37.6825 31.8107 38.243 30.6509C38.707 29.6941 39.1419 28.3313 39.2289 27.6064L39.4029 26.3016Z" fill="#FFC700"/>
<path d="M31.756 19.4875C31.7154 19.803 31.6064 20.111 31.3929 20.3468C30.8503 20.9463 30.6974 21.1283 30.6174 21.2275C30.5584 21.3005 31.1241 21.0733 31.6564 20.7935C32.2069 20.5042 32.6369 20.0286 32.8459 19.4429C33.0084 18.9872 33.0396 18.6313 33.0396 18.4072C32.7655 18.4072 32.3985 18.6892 32.1075 18.9128C32.0062 18.9907 31.914 19.0615 31.8382 19.1109C31.8043 19.2009 31.7759 19.3335 31.756 19.4875Z" fill="#FFC700"/>
<path d="M16.7075 20.0592C16.5573 19.8714 15.3559 18.8202 14.9054 18.4823C14.7329 18.6324 14.6649 18.7975 14.7552 19.1956C14.9054 19.6462 15.1306 19.8714 15.7443 20.0097C15.893 20.0196 16.0219 20.0359 16.1376 20.0506C16.3604 20.0788 16.5345 20.1008 16.7075 20.0592Z" fill="white"/>
<path d="M22.1515 31.9985C20.7839 32.7962 19.1949 33.0873 17.3971 33.0873C17.3971 33.0873 17.1362 33.1735 17.4551 33.8404C17.6581 34.2463 18.0815 34.7393 18.2844 34.7393C18.4312 34.6659 18.4454 34.4301 18.4616 34.1624V34.1617C18.4702 34.0187 18.4795 33.8668 18.5097 33.7255C18.5097 33.6032 18.681 33.7319 18.8369 33.849L18.8413 33.8524C18.8724 33.8756 18.9025 33.8983 18.9307 33.9183C18.9794 33.9531 19.0217 33.98 19.0499 33.9884C19.1771 34.0259 19.5609 33.5754 19.6736 33.378C19.7383 33.2645 19.8392 33.3466 19.9534 33.4396C20.0622 33.5283 20.1832 33.6268 20.2967 33.5754C20.8185 33.0122 22.1515 32.7676 22.1515 32.7676C22.1515 32.7676 23.4845 33.0122 24.0064 33.5754C24.1199 33.6268 24.2409 33.5283 24.3497 33.4396C24.4639 33.3466 24.5648 33.2645 24.6295 33.378C24.7421 33.5754 25.126 34.0259 25.2532 33.9884C25.2985 33.975 25.38 33.9138 25.4661 33.849C25.6221 33.7319 25.7934 33.6032 25.7934 33.7255C25.8237 33.867 25.8329 34.0193 25.8415 34.1624C25.8576 34.4301 25.8719 34.6659 26.0187 34.7393C26.2216 34.7393 26.645 34.2463 26.848 33.8404C27.1669 33.1735 26.906 33.0873 26.906 33.0873C25.1082 33.0873 23.5191 32.7962 22.1515 31.9985Z" fill="white"/>
<path d="M22.124 36.729L22.1515 36.7291L22.179 36.729C22.5061 36.7274 23.009 36.725 23.6158 36.579C23.792 36.4811 23.9274 36.322 24.0379 36.1921C24.1393 36.0728 24.2197 35.9782 24.2916 35.9782C24.3432 35.9954 24.4042 36.0158 24.5169 36.3161C24.6008 36.4279 24.6551 36.4031 24.7421 36.3161C24.7421 36.3161 25.0056 36.0477 25.1927 35.753C25.261 35.6453 25.3141 35.5307 25.358 35.4362C25.4139 35.3155 25.4548 35.2273 25.493 35.2273C25.6057 35.2273 25.6432 35.4151 25.6432 35.6403C25.5681 36.2411 25.3112 36.6239 25.1082 36.8269C24.9053 37.0299 23.9484 37.2618 22.9916 37.3778C22.7212 37.4017 22.4356 37.4146 22.1515 37.4172C21.8675 37.4146 21.5818 37.4017 21.3115 37.3778C20.3547 37.2618 19.3978 37.0299 19.1949 36.8269C18.9919 36.6239 18.7349 36.2411 18.6599 35.6403C18.6599 35.4151 18.6974 35.2273 18.81 35.2273C18.8482 35.2273 18.8892 35.3155 18.9451 35.4362C18.9692 35.4881 18.9961 35.5461 19.0267 35.6056C19.0519 35.6545 19.0796 35.7044 19.1104 35.753C19.2975 36.0477 19.5609 36.3161 19.5609 36.3161C19.648 36.4031 19.7023 36.4279 19.7862 36.3161C19.8988 36.0158 19.9599 35.9954 20.0115 35.9782C20.0833 35.9782 20.1638 36.0728 20.2652 36.1921C20.3757 36.322 20.5111 36.4811 20.6873 36.579C21.2941 36.725 21.797 36.7274 22.124 36.729Z" fill="white"/>
<path d="M27.5956 20.0592C27.7457 19.8714 28.9472 18.8202 29.3977 18.4823C29.5702 18.6324 29.6382 18.7975 29.5479 19.1956C29.3977 19.6462 29.1725 19.8714 28.5588 20.0097C28.5161 20.0126 28.4751 20.0159 28.4355 20.0197C28.3893 20.024 28.3451 20.0288 28.3028 20.0337L28.2527 20.0397L28.1655 20.0506C27.9426 20.0788 27.7685 20.1008 27.5956 20.0592Z" fill="white"/>
</svg>
