<svg width="512" height="497" viewBox="0 0 512 497" fill="none" xmlns="http://www.w3.org/2000/svg">
<path d="M174.247 11.1009C200.231 2.43965 229.041 -0.00971682 256 2.89386e-05C282.959 -0.00971682 311.769 2.43965 337.753 11.1009L353.193 16.2477C356.222 17.257 359.511 17.2536 362.537 16.2375C368.009 14.3996 372.637 12.8221 376.591 11.4744C392.275 6.12757 397.346 4.39918 402.425 4.39918C407.084 4.39918 410.711 6.4102 415.529 9.0816C417.234 10.0271 419.089 11.0551 421.191 12.1062C429.233 16.4623 439.956 25.8449 445.317 33.217C453.694 44.61 454.7 49.3011 455.035 70.7468C455.035 94.2032 455.369 95.5437 470.449 115.984C479.161 127.377 490.219 145.807 495.246 156.865C500.272 167.923 506.303 185.013 508.314 194.73C510.325 204.113 512 224.553 512 239.967C512 255.046 509.99 274.146 507.308 282.524C504.628 290.901 499.936 303.299 496.586 310.336C495.949 311.564 495.386 312.664 494.879 313.655C492.217 318.853 491.105 321.024 489.119 322.676C488.243 323.404 487.085 323.735 485.977 323.47C484.248 323.057 482.519 322.129 480.967 321.296C480.203 320.885 479.482 320.498 478.826 320.208C477.364 319.559 476.069 320.601 475.488 322.092L475.186 322.869C472.908 328.729 468.008 341.332 462.742 350.547C456.04 361.94 441.296 380.37 430.238 391.763C419.125 402.55 390.625 422.837 379.592 429.113C379.156 429.361 378.612 429.173 378.412 428.713C377.477 426.562 376.909 424.669 376.434 423.086C375.652 420.479 375.122 418.713 373.618 418.016C373.324 417.88 372.996 417.884 372.702 418.02C369.111 419.677 355.092 430.606 341.618 441.111C339.669 442.631 337.731 444.141 335.837 445.614C314.349 460.106 282.034 480.76 256 496.941C229.966 480.76 197.651 460.106 176.163 445.614C174.269 444.141 172.331 442.631 170.382 441.111C156.908 430.606 142.889 419.677 139.298 418.02C139.149 417.951 138.992 417.916 138.834 417.916C138.681 417.916 138.527 417.949 138.382 418.016C136.878 418.713 136.348 420.479 135.566 423.086C135.091 424.669 134.523 426.562 133.588 428.713C133.388 429.173 132.844 429.361 132.408 429.113C121.375 422.837 92.8754 402.55 81.7619 391.763C70.7042 380.37 55.9602 361.94 49.2585 350.547C43.9924 341.332 39.0924 328.729 36.8144 322.869L36.5119 322.092C35.9305 320.601 34.6364 319.559 33.1737 320.208C32.5178 320.498 31.7966 320.885 31.0331 321.296C29.4814 322.129 27.7517 323.057 26.0229 323.47C24.9153 323.735 23.7568 323.404 22.8814 322.676C20.8949 321.024 19.7831 318.853 17.1212 313.655C16.6144 312.664 16.0508 311.564 15.4144 310.336C12.0636 303.299 7.37203 290.901 4.69153 282.524C2.01017 274.146 0 255.046 0 239.967C0 224.553 1.67542 204.113 3.68559 194.73C5.69661 185.013 11.728 167.923 16.7542 156.865C21.7805 145.807 32.839 127.377 41.5508 115.984C56.6305 95.5437 56.9653 94.2032 56.9653 70.7468C57.3 49.3011 58.3059 44.61 66.6831 33.217C72.0441 25.8449 82.7669 16.4623 90.8093 12.1062C92.911 11.0551 94.7661 10.0271 96.4712 9.0816C101.289 6.4102 104.916 4.39918 109.575 4.39918C114.654 4.39918 119.725 6.12757 135.409 11.4744C139.363 12.8221 143.991 14.3996 149.463 16.2375C152.489 17.2536 155.778 17.257 158.807 16.2477L174.247 11.1009Z" fill="#FFC700"/>
<path d="M175.253 26.1802C201.603 17.2613 243.851 12.1492 256 18.2238C268.149 12.1492 310.397 17.2613 336.748 26.1802L361.209 34.5573C383.325 24.1696 393.713 21.1537 398.739 21.1537C404.1 21.1537 412.478 23.8344 417.839 26.8503C423.201 30.2011 431.242 38.2433 435.264 44.61C441.965 54.6628 442.636 59.3539 440.96 78.1189L439.285 99.8999C461.736 127.042 473.464 146.142 479.831 159.211C486.198 172.614 493.234 194.06 495.58 207.129C497.591 219.862 498.596 240.302 497.591 252.366C496.585 264.429 492.899 280.848 489.548 288.555C488.496 291.112 487.67 293.176 486.992 294.869C484.804 300.334 484.163 301.936 482.444 303.768C482.214 304.013 481.859 304.091 481.543 303.977C477.696 302.592 476.276 301.95 475.076 301.271C474.165 300.756 473.018 301.089 472.57 302.035C466.698 314.455 447.949 347.076 440.626 357.584C432.918 368.307 417.504 384.391 406.446 393.438C395.388 402.486 385.336 409.858 383.66 409.858C382.32 409.858 380.644 407.512 379.639 404.832C378.298 400.81 373.607 403.156 358.864 413.879C337.734 430.237 314.639 444.375 291.634 458.459C279.635 465.805 267.659 473.136 256 480.759C244.341 473.136 232.365 465.805 220.366 458.459C197.361 444.375 174.266 430.237 153.137 413.879C138.393 403.156 133.702 400.81 132.361 404.832C131.356 407.512 129.681 409.858 128.34 409.858C126.664 409.858 116.612 402.486 105.554 393.438C94.4959 384.391 79.0823 368.307 71.3747 357.584C64.0509 347.076 45.3018 314.455 39.4298 302.035C38.9823 301.089 37.8348 300.756 36.9238 301.271C35.7238 301.95 34.3043 302.592 30.4569 303.977C30.1416 304.091 29.7857 304.013 29.556 303.768C27.8374 301.936 27.1959 300.334 25.0086 294.869C24.3306 293.176 23.5043 291.112 22.4518 288.555C19.1009 280.848 15.4154 264.429 14.4094 252.366C13.4043 240.302 14.4094 219.862 16.4204 207.129C18.7662 194.06 25.8026 172.614 32.1696 159.211C38.5365 146.142 50.2645 127.042 72.7154 99.8999L71.0399 78.1189C69.3645 59.3539 70.0348 54.6628 76.7365 44.61C80.7577 38.2433 88.7993 30.2011 94.1611 26.8503C99.5221 23.8344 107.9 21.1537 113.261 21.1537C118.287 21.1537 128.676 24.1696 150.792 34.5573L175.253 26.1802Z" fill="#4A72D9"/>
<path d="M256 27.7695C229.476 22.3437 205.264 28.0458 197.916 29.7763C197.037 29.9833 196.4 30.1335 196.028 30.2011C193.251 30.706 187.051 32.7324 180.577 34.8483C178.459 35.5405 176.313 36.242 174.248 36.9028C165.87 39.9187 157.158 43.6047 154.812 45.2801C152.467 46.9555 145.095 45.2801 136.382 41.5941C128.676 38.2432 118.958 34.5572 114.602 33.2168C109.576 31.8765 104.548 33.5519 97.8467 39.5835L88.7992 47.9608C105.554 44.61 114.266 46.2854 124.654 50.9767C134.707 55.3329 140.738 60.024 140.738 64.0452C141.074 67.0608 138.728 72.0873 135.712 74.768C132.697 77.4488 130.351 80.7996 130.686 82.475C130.686 83.8155 134.037 83.8155 138.058 82.8102C142.079 81.4697 148.446 76.1083 152.131 70.7468C156.153 65.3854 165.87 58.6837 174.248 55.6678C181.143 53.0155 202.633 47.8439 217.442 45.9691C224.017 45.1367 230.66 44.568 237.287 44.485C247.957 44.3515 256 46.4271 256 46.4271C256 46.4271 264.043 44.3515 274.713 44.485C281.34 44.568 287.983 45.1367 294.559 45.9691C309.367 47.8439 330.857 53.0155 337.753 55.6678C346.13 58.6837 355.848 65.3854 359.869 70.7468C363.554 76.1083 369.921 81.4697 373.942 82.8102C377.964 83.8155 381.314 83.8155 381.314 82.475C381.649 80.7996 379.303 77.4488 376.288 74.768C373.272 72.0873 370.926 67.0608 371.262 64.0452C371.262 60.024 377.293 55.3329 387.346 50.9767C397.734 46.2854 406.446 44.61 423.201 47.9608L414.153 39.5835C407.452 33.5519 402.425 31.8765 397.398 33.2168C393.042 34.5572 383.325 38.2432 375.618 41.5941C366.905 45.2801 359.533 46.9555 357.188 45.2801C354.842 43.6047 346.13 39.9187 337.753 36.9028C335.687 36.242 333.541 35.5405 331.421 34.8477L331.414 34.8458C324.946 32.7312 318.748 30.7057 315.972 30.2011C315.889 30.186 315.792 30.1668 315.684 30.1437L315.381 30.0778C315.036 30.0007 314.602 29.8983 314.084 29.7763C306.736 28.0458 282.524 22.3437 256 27.7695Z" fill="#FFC700"/>
<path d="M256 65.0144C254.358 64.9985 252.788 65.0096 251.318 65.0504C239.255 65.3854 222.836 66.7259 214.459 68.4013C206.081 70.0767 191.002 75.103 180.949 79.7943C170.897 84.4856 163.525 89.1769 164.865 90.8524C166.541 92.1926 171.567 91.1873 176.593 88.8418C181.954 86.4962 195.023 84.4856 206.081 84.1505C208.306 84.1505 210.965 84.1369 213.923 84.1153C217.665 84.0877 221.885 84.0473 226.304 84.0051L226.32 84.0049H226.328L226.338 84.0047C233.364 83.9373 240.563 85.5318 247.566 87.0831L247.584 87.0875C249.27 87.4608 250.943 87.8314 252.601 88.1757C253.196 88.2992 253.789 88.4195 254.38 88.5352C254.922 88.6416 255.462 88.7439 256 88.8418C258.763 88.3394 261.582 87.7149 264.434 87.0831C271.437 85.5318 278.636 83.9373 285.662 84.0047L285.672 84.0049H285.68L285.696 84.0051C293.608 84.0807 300.878 84.1505 305.919 84.1505C316.977 84.4856 330.046 86.4962 335.407 88.8418C340.433 91.1873 345.459 92.1926 347.135 90.8524C348.476 89.1769 341.103 84.4856 331.051 79.7943C320.998 75.103 305.919 70.0767 297.542 68.4013C289.164 66.7259 272.745 65.3854 260.682 65.0504C259.212 65.0096 257.642 64.9985 256 65.0144Z" fill="#FFC700"/>
<path d="M239.946 169.654C246.888 167.919 251.232 167.314 256 167.485C260.768 167.314 265.112 167.919 272.054 169.654C274.884 169.654 276.421 169.285 277.987 168.055C278.857 167.372 279.676 166.629 280.496 165.886C281.596 164.888 282.695 163.891 283.914 163.042C284.564 162.589 285.24 162.12 285.942 161.635C286.757 161.071 287.607 160.487 288.494 159.881C297.877 153.514 311.951 146.477 319.323 144.802C326.695 143.126 335.742 138.77 339.428 135.084C344.79 129.388 345.459 127.377 341.774 124.026C339.428 122.016 337.753 119 337.753 117.66C337.753 115.984 339.763 114.979 341.774 114.979C344.12 115.314 353.502 119 362.885 123.356C371.932 127.712 382.99 135.084 387.011 139.775C391.367 144.467 394.048 150.163 393.042 151.839C380.478 152.744 369.889 160.489 359.4 168.16L359.395 168.165C353.596 172.406 347.828 176.624 341.774 179.651C332.392 184.677 331.051 184.677 331.051 180.321C331.051 177.64 334.737 170.604 339.428 165.242C344.12 159.881 344.949 157.071 344.949 154.902C343.274 154.902 336.077 158.54 330.046 162.561C324.349 166.583 304.493 181.374 296.787 188.746C293.279 192.253 289.228 194.072 285.604 195.019C285.445 195.061 285.307 195.143 285.2 195.249C285.037 195.412 284.948 195.634 284.97 195.858C284.981 195.956 285.013 196.055 285.07 196.15C286.215 198.06 288.505 199.296 291.589 200.962C293.069 201.761 294.731 202.659 296.537 203.778C299.217 207.464 302.568 215.841 304.243 222.207C305.919 228.574 312.956 243.653 319.993 255.717C330.715 273.811 333.061 281.183 333.731 299.278C334.402 311.677 333.061 325.415 330.715 331.112C328.37 336.808 326.359 342.84 326.359 344.515C326.025 346.191 318.987 347.531 310.946 346.861C302.568 346.526 291.51 345.521 285.814 344.515C280.117 343.51 274.086 341.499 272.41 339.824C270.4 337.813 272.075 335.803 277.437 334.128C282.128 332.787 289.835 328.766 294.861 324.745C300.222 320.724 306.925 312.011 309.94 304.975C315.637 292.911 315.637 291.906 309.94 280.848C305.584 272.136 300.892 268.115 291.845 265.769C284.871 264.109 268.683 262.448 256 262.419C243.317 262.448 227.129 264.109 220.155 265.769C211.108 268.115 206.416 272.136 202.06 280.848C196.364 291.906 196.364 292.911 202.06 304.975C205.076 312.011 211.778 320.724 217.139 324.745C222.165 328.766 229.872 332.787 234.564 334.128C239.926 335.803 241.6 337.813 239.59 339.824C237.914 341.499 231.883 343.51 226.187 344.515C220.49 345.521 209.432 346.526 201.054 346.861C193.013 347.531 185.976 346.191 185.641 344.515C185.641 342.84 183.63 336.808 181.285 331.112C178.939 325.415 177.598 311.677 178.269 299.278C178.939 281.183 181.285 273.811 192.007 255.717C199.044 243.653 206.081 228.574 207.757 222.207C209.432 215.841 212.783 207.464 215.464 203.778C217.27 202.659 218.931 201.761 220.411 200.962C223.495 199.296 225.785 198.06 226.931 196.15C227.202 195.699 226.905 195.152 226.396 195.019C222.772 194.072 218.721 192.253 215.214 188.746C207.507 181.374 187.651 166.583 181.954 162.561C175.923 158.54 168.726 154.902 167.051 154.902C167.051 157.071 167.881 159.881 172.572 165.242C177.264 170.604 180.949 177.64 180.949 180.321C180.949 184.677 179.609 184.677 170.226 179.651C164.172 176.624 158.404 172.406 152.605 168.165L152.6 168.16C142.111 160.489 131.522 152.744 118.958 151.839C117.953 150.163 120.633 144.467 124.989 139.775C129.01 135.084 140.068 127.712 149.115 123.356C158.498 119 167.881 115.314 170.226 114.979C172.237 114.979 174.248 115.984 174.248 117.66C174.248 119 172.572 122.016 170.226 124.026C166.541 127.377 167.21 129.388 172.572 135.084C176.258 138.77 185.305 143.126 192.677 144.802C200.049 146.477 214.123 153.514 223.506 159.881C224.342 160.451 225.144 161.003 225.915 161.536C226.669 162.056 227.392 162.559 228.087 163.042C229.305 163.891 230.404 164.888 231.504 165.886C232.044 166.376 232.584 166.865 233.138 167.338C233.292 167.468 233.446 167.597 233.601 167.725C233.737 167.836 233.875 167.946 234.013 168.055C235.579 169.285 237.116 169.654 239.946 169.654Z" fill="#FFC700"/>
<path d="M256 418.233L254.669 418.235C233.893 418.235 223.17 416.56 215.129 412.203C207.421 408.182 204.07 403.826 203.4 397.46V397.45C202.887 392.665 202.635 390.323 201.977 390.203C201.347 390.087 200.342 392.013 198.374 395.784C196.028 399.805 194.688 406.507 195.023 410.528C195.693 414.884 200.72 420.581 207.757 424.602C217.474 430.633 225.181 431.639 254.669 431.639L256 431.638L257.331 431.639C286.819 431.639 294.526 430.633 304.243 424.602C311.281 420.581 316.307 414.884 316.977 410.528C317.312 406.507 315.972 399.805 313.626 395.784C311.659 392.013 310.653 390.087 310.023 390.203C309.365 390.323 309.114 392.665 308.6 397.45V397.46C307.93 403.826 304.579 408.182 296.871 412.203C288.83 416.56 278.107 418.235 257.331 418.235L256 418.233Z" fill="#FFC700"/>
<path d="M77.7416 124.361C78.7467 119 78.4119 114.979 77.0713 114.979C75.7314 114.979 70.0348 123.021 64.3382 132.403C58.6416 142.121 52.945 153.179 51.6043 156.865C50.2645 160.886 50.5992 162.227 52.2747 160.216C53.2484 159.242 55.6942 156.457 58.6899 153.045L58.7382 152.991L60.8399 150.599C62.4069 148.817 64.056 146.95 65.678 145.137C71.3747 138.77 77.0713 129.388 77.7416 124.361Z" fill="#FFC700"/>
<path d="M66.0136 173.62C66.684 174.625 65.0086 179.316 62.3272 184.677C59.6467 189.704 55.9611 203.442 53.6153 215.506C51.2696 227.569 47.2484 246.669 44.2323 258.397C40.8814 269.79 37.1958 279.173 35.1848 279.173C33.1747 279.173 32.5043 269.12 33.845 251.695C35.1848 231.925 38.5357 218.186 44.9026 203.778C49.9289 192.72 56.6306 180.991 59.3119 177.64C62.3272 174.625 65.3433 172.614 66.0136 173.62Z" fill="#FFC700"/>
<path d="M163.673 186.139C161.502 184.751 158.926 183.105 158.163 183.105C157.243 185.701 156.212 188.744 156.298 193.368C156.381 197.825 157.912 202.126 160.005 206.062C162.209 210.205 164.014 212.128 168.353 214.78C174.385 218.131 178.766 217.817 185.976 216.846L196.122 212.61C192.507 212.51 189.753 212.502 187.525 212.496H187.514C183.063 212.485 180.714 212.478 177.799 211.746C172.847 210.502 168.549 207.27 166.356 202.657C164.935 199.668 163.842 196.26 164.014 193.519C164.014 191.086 164.014 189.18 165.749 187.444C165.177 187.101 164.451 186.636 163.673 186.139Z" fill="#FFC700"/>
<path d="M56.6306 280.848L70.3696 306.985C78.0764 321.729 92.1501 341.499 103.879 353.898C114.937 365.291 123.984 377.354 123.984 380.705C123.984 383.721 122.979 386.402 121.638 386.402C119.963 386.402 110.245 378.695 99.1874 368.977C86.2306 357.137 76.5128 344.515 70.0348 331.112C64.673 320.054 59.6467 304.304 58.6416 295.927L56.6306 280.848Z" fill="#FFC700"/>
<path d="M145.003 202.099C145.473 205.745 146.733 209.304 149.2 212.03C155.47 218.957 157.238 221.061 158.163 222.207C158.844 223.052 152.307 220.426 146.154 217.192C139.792 213.848 134.824 208.352 132.409 201.583C130.53 196.317 130.17 192.203 130.17 189.614C133.337 189.614 137.578 192.872 140.942 195.457C142.113 196.357 143.178 197.175 144.054 197.746C144.446 198.787 144.774 200.319 145.003 202.099Z" fill="#FFC700"/>
<path d="M446.322 145.137C440.626 138.77 434.929 129.388 434.259 124.361C433.253 119 433.588 114.979 434.929 114.979C436.269 114.979 441.965 123.021 447.662 132.403C453.359 142.121 459.055 153.179 460.396 156.865C461.736 160.886 461.401 162.227 459.726 160.216C459.298 159.788 458.585 159.009 457.665 157.981C456.494 156.671 454.988 154.957 453.31 153.045C451.152 150.587 448.708 147.803 446.322 145.137Z" fill="#FFC700"/>
<path d="M445.987 173.62C445.316 174.625 446.992 179.316 449.673 184.677C452.353 189.704 456.039 203.442 458.385 215.506C460.731 227.569 464.752 246.669 467.768 258.397C471.119 269.79 474.804 279.173 476.815 279.173C478.826 279.173 479.496 269.12 478.155 251.695C476.815 231.925 473.464 218.186 467.098 203.778C462.071 192.72 455.37 180.991 452.688 177.64C449.673 174.625 446.657 172.614 445.987 173.62Z" fill="#FFC700"/>
<path d="M348.327 186.139C350.498 184.751 353.074 183.105 353.837 183.105C354.757 185.701 355.788 188.744 355.702 193.368C355.619 197.825 354.088 202.126 351.995 206.062C349.792 210.205 347.987 212.128 343.648 214.78C337.615 218.131 333.234 217.817 326.025 216.846L315.878 212.61C319.498 212.51 322.256 212.502 324.486 212.496C328.937 212.485 331.286 212.478 334.201 211.746C339.153 210.502 343.451 207.27 345.644 202.657C347.065 199.668 348.158 196.26 347.987 193.519C347.987 191.086 347.987 189.18 346.251 187.444C346.823 187.101 347.549 186.636 348.327 186.139Z" fill="#FFC700"/>
<path d="M455.37 280.848L441.631 306.985C433.924 321.729 419.85 341.499 408.121 353.898C397.064 365.291 388.016 377.354 388.016 380.705C388.016 383.721 389.021 386.402 390.362 386.402C392.037 386.402 401.755 378.695 412.813 368.977C425.77 357.137 435.487 344.515 441.965 331.112C447.327 320.054 452.353 304.304 453.359 295.927L455.37 280.848Z" fill="#FFC700"/>
<path d="M366.997 202.099C366.527 205.745 365.267 209.304 362.8 212.03C356.53 218.957 354.762 221.061 353.837 222.207C353.156 223.052 359.693 220.426 365.846 217.192C372.208 213.848 377.176 208.352 379.592 201.583C381.47 196.317 381.831 192.203 381.831 189.614C378.663 189.614 374.422 192.872 371.059 195.457C369.887 196.357 368.822 197.175 367.946 197.746C367.554 198.787 367.226 200.319 366.997 202.099Z" fill="#FFC700"/>
<path d="M193.085 208.705C191.349 206.536 177.464 194.386 172.258 190.481C170.264 192.217 169.479 194.124 170.522 198.725C172.258 203.932 174.861 206.536 181.953 208.134C183.672 208.248 185.161 208.437 186.498 208.606C189.074 208.932 191.086 209.186 193.085 208.705Z" fill="white"/>
<path d="M256 346.685C240.195 355.904 221.831 359.268 201.054 359.268C201.054 359.268 198.039 360.264 201.725 367.971C204.07 372.663 208.964 378.359 211.309 378.359C213.005 377.511 213.17 374.786 213.356 371.693V371.685C213.456 370.033 213.563 368.276 213.912 366.644C213.912 365.23 215.892 366.717 217.694 368.071L217.745 368.11C218.103 368.378 218.452 368.64 218.777 368.872C219.34 369.274 219.829 369.585 220.155 369.681C221.625 370.115 226.061 364.908 227.363 362.627C228.111 361.315 229.276 362.265 230.597 363.34C231.854 364.365 233.253 365.503 234.564 364.908C240.595 358.4 256 355.573 256 355.573C256 355.573 271.405 358.4 277.436 364.908C278.747 365.503 280.146 364.365 281.403 363.34C282.724 362.265 283.889 361.315 284.637 362.627C285.939 364.908 290.375 370.115 291.845 369.681C292.369 369.527 293.31 368.819 294.306 368.071C296.109 366.717 298.088 365.23 298.088 366.644C298.438 368.279 298.544 370.039 298.644 371.693C298.831 374.786 298.995 377.511 300.692 378.359C303.036 378.359 307.93 372.663 310.275 367.971C313.961 360.264 310.946 359.268 310.946 359.268C290.17 359.268 271.805 355.904 256 346.685Z" fill="white"/>
<path d="M255.682 401.354L256 401.356L256.318 401.354C260.097 401.336 265.909 401.308 272.922 399.62C274.959 398.489 276.523 396.65 277.8 395.149C278.972 393.771 279.902 392.678 280.732 392.678C281.328 392.877 282.034 393.112 283.336 396.583C284.305 397.874 284.933 397.588 285.939 396.583C285.939 396.583 288.984 393.481 291.146 390.075C291.936 388.83 292.549 387.506 293.056 386.413C293.703 385.019 294.175 384 294.617 384C295.919 384 296.353 386.169 296.353 388.773C295.485 395.715 292.515 400.14 290.17 402.486C287.825 404.831 276.766 407.512 265.709 408.852C262.584 409.128 259.283 409.278 256 409.308C252.717 409.278 249.416 409.128 246.292 408.852C235.234 407.512 224.175 404.831 221.831 402.486C219.485 400.14 216.515 395.715 215.647 388.773C215.647 386.169 216.081 384 217.383 384C217.825 384 218.297 385.019 218.944 386.413C219.222 387.014 219.533 387.684 219.887 388.372C220.178 388.937 220.498 389.514 220.854 390.075C223.016 393.481 226.061 396.583 226.061 396.583C227.067 397.588 227.695 397.874 228.664 396.583C229.966 393.112 230.672 392.877 231.268 392.678C232.098 392.678 233.028 393.771 234.2 395.149C235.477 396.65 237.042 398.489 239.078 399.62C246.091 401.308 251.903 401.336 255.682 401.354Z" fill="white"/>
<path d="M318.915 208.705C320.651 206.536 334.536 194.386 339.742 190.481C341.736 192.217 342.521 194.124 341.478 198.725C339.742 203.932 337.139 206.536 330.047 208.134C329.553 208.167 329.08 208.206 328.622 208.249C328.088 208.299 327.578 208.354 327.088 208.411L326.509 208.48L325.502 208.606C322.926 208.932 320.914 209.186 318.915 208.705Z" fill="white"/>
</svg>
